<svg id="Layer_1" enable-background="new 0 0 511.986 511.986" height="512" viewBox="0 0 511.986 511.986" width="512" xmlns="http://www.w3.org/2000/svg"><g><path d="m413.014 53.813c-45.268-35.205-99.565-53.813-157.021-53.813s-111.752 18.608-157.021 53.813l-13.413 10.432 62.766 62.766 10.341-7.395c28.507-20.384 62.163-31.159 97.327-31.159s68.82 10.774 97.327 31.159l10.341 7.395 62.767-62.766z" fill="#ffaf00"/><path d="m88.457 255.993c0-35.209 10.801-68.9 31.235-97.431l7.409-10.344-62.764-62.763-10.434 13.4c-35.263 45.29-53.903 99.628-53.903 157.138 0 57.456 18.608 111.752 53.813 157.021l10.432 13.414 62.766-62.766-7.395-10.341c-20.385-28.508-31.159-62.163-31.159-97.328z" fill="#8ee16a"/><path d="m458.083 98.854-10.434-13.4-62.764 62.764 7.409 10.344c20.434 28.53 31.235 62.221 31.235 97.431 0 35.165-10.774 68.82-31.159 97.328l-7.395 10.341 62.766 62.766 10.432-13.414c35.205-45.269 53.813-99.565 53.813-157.021 0-57.51-18.639-111.848-53.903-157.139z" fill="#28e7ef"/><path d="m363.768 384.886-10.344 7.409c-28.53 20.434-62.221 31.234-97.431 31.234s-68.901-10.801-97.431-31.234l-10.344-7.409-62.764 62.763 13.4 10.434c45.291 35.264 99.628 53.903 157.139 53.903s111.848-18.64 157.139-53.903l13.4-10.434z" fill="#ff415b"/><path d="m193.873 315.097h124.241l19.183-101.696h-132.079l-8.843-46.879h-44.272v30h19.402z" fill="#537983"/><g><path d="m274.306 337.12h30.001v30h-30.001z" fill="#537983"/></g><g><path d="m207.679 337.12h30.002v30h-30.002z" fill="#537983"/></g><path d="m458.083 98.854-10.434-13.4-62.764 62.764 7.409 10.344c20.434 28.53 31.235 62.221 31.235 97.431 0 35.165-10.774 68.82-31.159 97.328l-7.395 10.341 62.766 62.766 10.432-13.414c35.205-45.269 53.813-99.565 53.813-157.021 0-57.51-18.639-111.848-53.903-157.139z" fill="#1cace7"/><g><path d="m274.306 337.12h30.001v30h-30.001z" fill="#3e5959"/></g><path d="m363.662 127.01 62.767-62.766-13.414-10.432c-45.269-35.204-99.566-53.812-157.022-53.812v88.457c35.165 0 68.82 10.774 97.327 31.159z" fill="#ff8f00"/><path d="m363.768 384.886-10.344 7.409c-28.53 20.434-62.221 31.234-97.431 31.234v88.457c57.51 0 111.848-18.64 157.139-53.903l13.4-10.434z" fill="#db0f19"/><path d="m337.297 213.401h-81.304v101.696h62.121z" fill="#3e5959"/></g></svg>